<?xml version="1.0" encoding="UTF-8"?>
<!DOCTYPE svg PUBLIC "-//W3C//DTD SVG 1.1//EN" "http://www.w3.org/Graphics/SVG/1.1/DTD/svg11.dtd">
<svg xmlns="http://www.w3.org/2000/svg" version="1.1" width="1000px" height="1000px" style="shape-rendering:geometricPrecision; text-rendering:geometricPrecision; image-rendering:optimizeQuality; fill-rule:evenodd; clip-rule:evenodd" xmlns:xlink="http://www.w3.org/1999/xlink">
<g><path style="opacity:0.085" fill="#020100" d="M 105.5,38.5 C 370.834,38.3333 636.167,38.5 901.5,39C 904.458,39.2293 906.958,40.396 909,42.5C 910.536,48.7494 910.87,55.0828 910,61.5C 887.829,331.22 865.162,600.887 842,870.5C 841.535,871.931 840.701,873.097 839.5,874C 740.28,903.306 640.947,932.306 541.5,961C 528.976,964.798 516.309,967.964 503.5,970.5C 500.118,970.324 496.785,969.824 493.5,969C 387.225,938.131 280.892,907.464 174.5,877C 171.302,876.152 168.469,874.652 166,872.5C 164.084,867.362 163.084,862.029 163,856.5C 141,591.833 119,327.167 97,62.5C 96.1227,55.7506 96.456,49.0839 98,42.5C 100.255,40.5012 102.755,39.1679 105.5,38.5 Z"/></g>
<g><path style="opacity:1" fill="#f6a52b" d="M 893.5,101.5 C 889.927,126.909 887.594,152.575 886.5,178.5C 885.544,193.503 884.544,208.503 883.5,223.5C 881.906,229.594 881.239,235.928 881.5,242.5C 878.5,281.17 875.5,319.837 872.5,358.5C 869.857,371.22 868.524,384.22 868.5,397.5C 865.901,427.484 863.568,457.484 861.5,487.5C 859.906,493.594 859.239,499.928 859.5,506.5C 853.99,577.176 848.323,647.843 842.5,718.5C 840.185,731.589 838.851,744.922 838.5,758.5C 838.5,760.833 838.5,763.167 838.5,765.5C 837.883,765.611 837.383,765.944 837,766.5C 836.076,779.499 835.242,792.499 834.5,805.5C 833.5,820.167 832.5,834.833 831.5,849.5C 829.896,853.9 829.229,858.566 829.5,863.5C 721.426,894.352 613.426,925.519 505.5,957C 502.558,958.124 499.558,958.458 496.5,958C 387.587,926.196 278.587,894.696 169.5,863.5C 168.749,862.624 168.249,861.624 168,860.5C 164.196,812.494 160.363,764.494 156.5,716.5C 156.915,709.907 156.248,703.574 154.5,697.5C 151.833,663.833 149.167,630.166 146.5,596.5C 146.666,591.156 146.499,585.823 146,580.5C 145.722,579.584 145.222,578.918 144.5,578.5C 131.202,415.832 117.868,253.165 104.5,90.5C 104.666,85.1563 104.499,79.8229 104,74.5C 103.79,72.9419 103.29,71.6085 102.5,70.5C 102.109,61.4759 101.442,52.4759 100.5,43.5C 366.501,43.1667 632.501,43.5 898.5,44.5C 896.414,63.443 894.748,82.443 893.5,101.5 Z"/></g>
<g><path style="opacity:0.22" fill="#b0761f" d="M 102.5,70.5 C 103.29,71.6085 103.79,72.9419 104,74.5C 104.499,79.8229 104.666,85.1563 104.5,90.5C 103.485,84.0128 102.818,77.3462 102.5,70.5 Z"/></g>
<g><path style="opacity:1" fill="#faaf21" d="M 499.5,110.5 C 612.665,109.5 725.999,109.167 839.5,109.5C 839.817,113.702 839.483,117.702 838.5,121.5C 838.5,117.833 838.5,114.167 838.5,110.5C 725.5,110.5 612.5,110.5 499.5,110.5 Z"/></g>
<g><path style="opacity:1" fill="#fec30d" d="M 499.5,110.5 C 612.5,110.5 725.5,110.5 838.5,110.5C 838.5,114.167 838.5,117.833 838.5,121.5C 819.088,351.132 800.088,580.799 781.5,810.5C 778.478,810.804 775.478,811.304 772.5,812C 681.549,838.487 590.549,864.653 499.5,890.5C 499.5,797.167 499.5,703.833 499.5,610.5C 506.054,584.516 513.388,558.849 521.5,533.5C 530.839,533.666 540.173,533.5 549.5,533C 551.666,531.322 552.999,529.155 553.5,526.5C 555.903,526.607 557.736,525.607 559,523.5C 561.245,515.353 563.412,507.186 565.5,499C 565.478,496.817 564.478,495.317 562.5,494.5C 552.292,494.158 542.292,493.158 532.5,491.5C 533.914,485.431 535.581,479.431 537.5,473.5C 547.172,473.666 556.839,473.5 566.5,473C 568.919,471.491 569.919,469.325 569.5,466.5C 572.808,467.026 574.974,465.693 576,462.5C 577.68,454.781 579.513,447.115 581.5,439.5C 581.333,438.167 581.167,436.833 581,435.5C 580.329,434.748 579.496,434.414 578.5,434.5C 568.833,433.833 559.167,433.167 549.5,432.5C 561.142,390.128 572.975,347.795 585,305.5C 586.569,300.375 585.069,296.541 580.5,294C 559.833,293.333 539.167,293.333 518.5,294C 516.235,295.758 514.568,297.925 513.5,300.5C 510.572,301.591 508.406,303.591 507,306.5C 504.619,314.797 502.452,323.13 500.5,331.5C 499.501,258.002 499.167,184.335 499.5,110.5 Z"/></g>
<g><path style="opacity:0.894" fill="#c48323" d="M 893.5,101.5 C 891.661,127.357 889.328,153.024 886.5,178.5C 887.594,152.575 889.927,126.909 893.5,101.5 Z"/></g>
<g><path style="opacity:0.659" fill="#9a681b" d="M 883.5,223.5 C 883.414,230.037 882.747,236.37 881.5,242.5C 881.239,235.928 881.906,229.594 883.5,223.5 Z"/></g>
<g><path style="opacity:1" fill="#fffefd" d="M 549.5,432.5 C 548.957,432.56 548.624,432.893 548.5,433.5C 558.478,434.499 568.478,434.832 578.5,434.5C 579.496,434.414 580.329,434.748 581,435.5C 581.167,436.833 581.333,438.167 581.5,439.5C 579.513,447.115 577.68,454.781 576,462.5C 574.974,465.693 572.808,467.026 569.5,466.5C 559.478,466.168 549.478,466.501 539.5,467.5C 538.628,469.45 537.961,471.45 537.5,473.5C 535.581,479.431 533.914,485.431 532.5,491.5C 531.596,492.209 531.263,493.209 531.5,494.5C 541.833,494.5 552.167,494.5 562.5,494.5C 564.478,495.317 565.478,496.817 565.5,499C 563.412,507.186 561.245,515.353 559,523.5C 557.736,525.607 555.903,526.607 553.5,526.5C 543.167,526.5 532.833,526.5 522.5,526.5C 522.326,528.861 521.993,531.194 521.5,533.5C 513.388,558.849 506.054,584.516 499.5,610.5C 494.358,627.71 489.192,645.044 484,662.5C 482.648,664.749 480.815,666.416 478.5,667.5C 458.831,667.667 439.164,667.5 419.5,667C 417.376,665.878 415.543,664.378 414,662.5C 413.304,658.095 413.637,653.761 415,649.5C 426.659,608.53 438.159,567.53 449.5,526.5C 439.494,526.666 429.494,526.5 419.5,526C 417.876,524.883 416.876,523.383 416.5,521.5C 418.332,515.17 419.999,508.837 421.5,502.5C 421.889,498.716 423.556,495.716 426.5,493.5C 437.52,493.832 448.52,493.499 459.5,492.5C 461.96,484.199 464.293,475.865 466.5,467.5C 456.183,466.668 445.849,466.168 435.5,466C 433.993,464.527 433.326,462.693 433.5,460.5C 434.86,453.728 436.526,447.061 438.5,440.5C 439.001,437.845 440.334,435.678 442.5,434C 453.495,433.5 464.495,433.333 475.5,433.5C 488.302,389.307 500.968,344.974 513.5,300.5C 514.568,297.925 516.235,295.758 518.5,294C 539.167,293.333 559.833,293.333 580.5,294C 585.069,296.541 586.569,300.375 585,305.5C 572.975,347.795 561.142,390.128 549.5,432.5 Z"/></g>
<g><path style="opacity:1" fill="#f3ad3c" d="M 513.5,300.5 C 500.968,344.974 488.302,389.307 475.5,433.5C 474.791,432.596 473.791,432.263 472.5,432.5C 481.052,398.626 490.385,364.959 500.5,331.5C 502.452,323.13 504.619,314.797 507,306.5C 508.406,303.591 510.572,301.591 513.5,300.5 Z"/></g>
<g><path style="opacity:1" fill="#fffefd" d="M 384.5,601.5 C 382.473,601.662 380.473,601.495 378.5,601C 333.558,571.045 288.891,540.878 244.5,510.5C 244.333,490.164 244.5,469.831 245,449.5C 289.402,418.714 334.235,388.547 379.5,359C 382.636,357.959 385.136,358.793 387,361.5C 387.821,382.21 387.655,402.877 386.5,423.5C 358.673,442.581 330.673,461.414 302.5,480C 330.753,499.043 358.92,518.21 387,537.5C 387.667,557.833 387.667,578.167 387,598.5C 385.955,599.373 385.122,600.373 384.5,601.5 Z"/></g>
<g><path style="opacity:1" fill="#fffefd" d="M 732.5,526.5 C 726.976,529.092 721.976,532.425 717.5,536.5C 685.386,557.398 653.386,578.564 621.5,600C 617.669,602.445 614.503,601.945 612,598.5C 611.5,578.836 611.333,559.169 611.5,539.5C 611.859,537.629 612.859,536.129 614.5,535C 638.862,518.823 663.195,502.656 687.5,486.5C 690.621,484.552 693.621,482.385 696.5,480C 668.667,461.5 640.833,443 613,424.5C 611.524,404.926 611.024,385.259 611.5,365.5C 611.644,360.187 614.31,358.021 619.5,359C 664.42,389.043 709.253,419.209 754,449.5C 754.667,469.833 754.667,490.167 754,510.5C 746.855,515.976 739.688,521.309 732.5,526.5 Z"/></g>
<g><path style="opacity:1" fill="#f3ac3a" d="M 611.5,365.5 C 611.024,385.259 611.524,404.926 613,424.5C 640.833,443 668.667,461.5 696.5,480C 693.621,482.385 690.621,484.552 687.5,486.5C 684.495,483.466 681.162,480.632 677.5,478C 653.409,462.539 629.576,446.706 606,430.5C 605.333,409.5 605.333,388.5 606,367.5C 607.444,365.845 609.278,365.178 611.5,365.5 Z"/></g>
<g><path style="opacity:0.804" fill="#ba7d21" d="M 872.5,358.5 C 871.275,371.656 869.942,384.656 868.5,397.5C 868.524,384.22 869.857,371.22 872.5,358.5 Z"/></g>
<g><path style="opacity:1" fill="#ffe79d" d="M 549.5,432.5 C 559.167,433.167 568.833,433.833 578.5,434.5C 568.478,434.832 558.478,434.499 548.5,433.5C 548.624,432.893 548.957,432.56 549.5,432.5 Z"/></g>
<g><path style="opacity:1" fill="#f3ad3e" d="M 438.5,440.5 C 436.526,447.061 434.86,453.728 433.5,460.5C 433.326,462.693 433.993,464.527 435.5,466C 445.849,466.168 456.183,466.668 466.5,467.5C 464.293,475.865 461.96,484.199 459.5,492.5C 448.52,493.499 437.52,493.832 426.5,493.5C 435.986,492.506 445.652,492.173 455.5,492.5C 456.829,486.175 458.163,479.842 459.5,473.5C 449.494,473.666 439.494,473.5 429.5,473C 426.793,471.136 425.959,468.636 427,465.5C 429,458.167 431,450.833 433,443.5C 434.264,441.393 436.097,440.393 438.5,440.5 Z"/></g>
<g><path style="opacity:1" fill="#f3ac3b" d="M 244.5,510.5 C 288.891,540.878 333.558,571.045 378.5,601C 380.473,601.495 382.473,601.662 384.5,601.5C 383.432,602.434 382.099,602.768 380.5,602.5C 380.11,607.534 377.444,609.367 372.5,608C 328,578.167 283.5,548.333 239,518.5C 238.333,497.5 238.333,476.5 239,455.5C 240.019,454.313 241.186,453.313 242.5,452.5C 243.167,471.996 243.833,491.329 244.5,510.5 Z"/></g>
<g><path style="opacity:1" fill="#f3af40" d="M 569.5,466.5 C 569.919,469.325 568.919,471.491 566.5,473C 556.839,473.5 547.172,473.666 537.5,473.5C 537.961,471.45 538.628,469.45 539.5,467.5C 549.478,466.501 559.478,466.168 569.5,466.5 Z"/></g>
<g><path style="opacity:1" fill="#ffeeb8" d="M 532.5,491.5 C 542.292,493.158 552.292,494.158 562.5,494.5C 552.167,494.5 541.833,494.5 531.5,494.5C 531.263,493.209 531.596,492.209 532.5,491.5 Z"/></g>
<g><path style="opacity:0.675" fill="#a7701e" d="M 861.5,487.5 C 861.414,494.037 860.747,500.37 859.5,506.5C 859.239,499.928 859.906,493.594 861.5,487.5 Z"/></g>
<g><path style="opacity:1" fill="#f3ac3c" d="M 421.5,502.5 C 419.999,508.837 418.332,515.17 416.5,521.5C 416.876,523.383 417.876,524.883 419.5,526C 429.494,526.5 439.494,526.666 449.5,526.5C 438.159,567.53 426.659,608.53 415,649.5C 413.637,653.761 413.304,658.095 414,662.5C 415.543,664.378 417.376,665.878 419.5,667C 439.164,667.5 458.831,667.667 478.5,667.5C 477.298,669.392 475.965,671.226 474.5,673C 453.5,673.667 432.5,673.667 411.5,673C 407.381,670.252 405.881,666.419 407,661.5C 419.154,618.88 430.987,576.213 442.5,533.5C 432.828,533.666 423.161,533.5 413.5,533C 412.069,532.535 410.903,531.701 410,530.5C 411.374,521.004 413.707,511.671 417,502.5C 418.65,499.894 420.15,499.894 421.5,502.5 Z"/></g>
<g><path style="opacity:1" fill="#f3ae3d" d="M 553.5,526.5 C 552.999,529.155 551.666,531.322 549.5,533C 540.173,533.5 530.839,533.666 521.5,533.5C 521.993,531.194 522.326,528.861 522.5,526.5C 532.833,526.5 543.167,526.5 553.5,526.5 Z"/></g>
<g><path style="opacity:1" fill="#f4b145" d="M 732.5,526.5 C 728.565,531.436 723.565,534.769 717.5,536.5C 721.976,532.425 726.976,529.092 732.5,526.5 Z"/></g>
<g><path style="opacity:1" fill="#f3ac3c" d="M 717.5,536.5 C 716.375,538.129 715.041,539.629 713.5,541C 680.328,562.752 647.328,584.752 614.5,607C 611.46,609.155 608.627,608.988 606,606.5C 605.333,585.5 605.333,564.5 606,543.5C 607.432,541.561 609.265,540.228 611.5,539.5C 611.333,559.169 611.5,578.836 612,598.5C 614.503,601.945 617.669,602.445 621.5,600C 653.386,578.564 685.386,557.398 717.5,536.5 Z"/></g>
<g><path style="opacity:0.227" fill="#ad741f" d="M 144.5,578.5 C 145.222,578.918 145.722,579.584 146,580.5C 146.499,585.823 146.666,591.156 146.5,596.5C 145.423,590.688 144.757,584.688 144.5,578.5 Z"/></g>
<g><path style="opacity:0.2" fill="#ab731e" d="M 154.5,697.5 C 156.248,703.574 156.915,709.907 156.5,716.5C 155.457,710.35 154.79,704.016 154.5,697.5 Z"/></g>
<g><path style="opacity:0.678" fill="#a7701e" d="M 842.5,718.5 C 841.598,732.021 840.265,745.354 838.5,758.5C 838.851,744.922 840.185,731.589 842.5,718.5 Z"/></g>
<g><path style="opacity:0.892" fill="#c08122" d="M 838.5,765.5 C 837.575,779.018 836.242,792.351 834.5,805.5C 835.242,792.499 836.076,779.499 837,766.5C 837.383,765.944 837.883,765.611 838.5,765.5 Z"/></g>
<g><path style="opacity:0.757" fill="#af761f" d="M 831.5,849.5 C 831.638,854.414 830.972,859.081 829.5,863.5C 829.229,858.566 829.896,853.9 831.5,849.5 Z"/></g>
</svg>
